<svg width="21" height="21" viewBox="0 0 21 21" fill="none" xmlns="http://www.w3.org/2000/svg">
<path d="M9.91295 2.77624e-05H9.90638C9.64921 0.0039639 9.44321 0.215211 9.44584 0.472382L9.47471 2.87219C9.47864 3.12805 9.68596 3.33273 9.94183 3.33273H9.94708C10.2042 3.3288 10.4116 3.11755 10.4076 2.86038L10.3788 0.461857C10.3761 0.205999 10.1675 2.77624e-05 9.91295 2.77624e-05ZM16.7803 2.77643C16.6596 2.77643 16.5389 2.82367 16.4471 2.91683L14.9382 4.46116C14.7584 4.64617 14.761 4.94138 14.946 5.12114C15.0366 5.21037 15.1547 5.25367 15.2714 5.25367C15.3935 5.25367 15.5142 5.20774 15.606 5.11327L17.1149 3.56894C17.2947 3.38524 17.2907 3.09003 17.1071 2.91027C17.0165 2.82105 16.8984 2.77643 16.7803 2.77643ZM3.08726 2.86566C2.96523 2.86566 2.84452 2.91289 2.75268 3.00736C2.57292 3.19105 2.57686 3.48758 2.76186 3.66603L4.45839 5.31796C4.54892 5.40587 4.6657 5.45049 4.78379 5.45049C4.9045 5.45049 5.02652 5.40325 5.11705 5.30878C5.29681 5.12509 5.29287 4.82987 5.10918 4.65011L3.41265 2.99818C3.32212 2.91027 3.20403 2.86566 3.08726 2.86566ZM19.7561 9.4327C19.7535 9.4327 19.7509 9.43402 19.7482 9.43402L17.4547 9.47338C17.1975 9.47731 16.9915 9.68987 16.9968 9.94836C17.0007 10.2029 17.208 10.4063 17.4626 10.4063H17.4704L19.764 10.3669C20.0212 10.3617 20.2272 10.1491 20.2219 9.89193C20.218 9.63738 20.0093 9.4327 19.7561 9.4327ZM2.741 9.60984H2.73313L0.459281 9.64526C0.202111 9.6492 -0.003891 9.86176 5.57785e-05 10.1189C0.00399192 10.3748 0.212617 10.5782 0.467175 10.5782H0.475048L2.74761 10.5427C3.00609 10.5388 3.21078 10.3262 3.20683 10.0691C3.2029 9.8132 2.99559 9.60984 2.74103 9.60984H2.741ZM10.0507 5.20792C12.789 5.20792 15.009 7.42797 15.009 10.1663C15.009 12.906 12.789 15.1247 10.0507 15.1247C7.31233 15.1247 5.09228 12.9059 5.09228 10.1663C5.09228 7.42797 7.31233 5.20792 10.0507 5.20792ZM10.0507 4.27502C6.79667 4.27502 4.15932 6.91365 4.15932 10.1664C4.15932 13.4204 6.79664 16.0591 10.0507 16.0591C13.3047 16.0591 15.942 13.4205 15.942 10.1664C15.942 6.91377 13.3047 4.27502 10.0507 4.27502ZM15.2937 14.7284C15.1678 14.7284 15.0444 14.7782 14.9526 14.8767C14.7767 15.0656 14.7859 15.3608 14.9749 15.5366L16.6688 17.1151C16.758 17.1991 16.8722 17.2411 16.9863 17.2411C17.111 17.2411 17.2356 17.1912 17.3275 17.0928C17.5033 16.9038 17.4928 16.6086 17.3052 16.4328L15.6113 14.8544C15.522 14.7704 15.4079 14.7284 15.2937 14.7284ZM4.8899 14.8071C4.76656 14.8071 4.64322 14.8557 4.55137 14.9528L2.9506 16.6454C2.77347 16.833 2.78265 17.1282 2.97028 17.3053C3.05951 17.3906 3.17497 17.4326 3.29045 17.4326C3.41378 17.4326 3.53712 17.3841 3.62898 17.287L5.22843 15.5931C5.40556 15.4067 5.39769 15.1115 5.21006 14.9344C5.12084 14.8491 5.00538 14.8071 4.8899 14.8071ZM10.108 16.9419H10.1067C9.84825 16.9419 9.63961 17.1518 9.64093 17.409L9.6488 19.8233C9.6488 20.0804 9.85742 20.2878 10.1146 20.2878H10.1159C10.3744 20.2865 10.5817 20.0778 10.5817 19.8194L10.5738 17.4064C10.5738 17.1492 10.3639 16.9419 10.108 16.9419Z" fill="black"/>
</svg>
